<svg xmlns="http://www.w3.org/2000/svg" xmlns:xlink="http://www.w3.org/1999/xlink" x="0" y="0" version="1.1" viewBox="0 0 800 800" xml:space="preserve" style="enable-background:new 0 0 800 800"><style type="text/css">.st0{fill:none;stroke:#3b3858;stroke-width:12;stroke-linecap:round;stroke-linejoin:round;stroke-miterlimit:10}.st1{fill:#64e5f9}.st2{fill:#fff}</style><g id="Layer_1"><g><path d="M560.9,463.8c0,0-16.2-71.5-89.8-99.9c-58.4-22.5-108.4-24.6-108.4-24.6s-59.1-26-103.5-53.9 c-72.5-45.5-95.6-2.7-39.6,36" class="st0"/><path d="M165.3,348.6c-62.2-39.5-38.3-86.9,31.2-41.6c64.7,42.1,128.7,70.8,128.7,70.8s6.6-10.9,14.9-18.1" class="st0"/><path d="M289,459.5c0,0-33.7-5.7-129.7-51.1c-76-36-78.2,14-25,47.9c79.6,50.8,167.9,77.4,167.9,77.4" class="st0"/><path d="M297.7,439.3c0,0-10.1,19.1-10.3,35.7" class="st0"/><path d="M426.6,494.8c0,0-50.7-18.9-78.4,40.2c0,0-63.5-6-130,7.8s-44,62.1,7.6,62.3s98.8,4,154.6,23.3 c49.6,17.1,90.3,3.8,114.9-24.4" class="st0"/><path d="M556.6,450.6c0,0,64.9,26.3,129.7,37.3" class="st0"/><line x1="486.9" x2="606.3" y1="612.5" y2="659.3" class="st0"/><path d="M299.1,412.3c0,0-55.7-13.8-145.1-70.9c-74.3-47.4-99.2,4.4-44.2,39.3c17.1,10.9,42.2,24.3,42.2,24.3" class="st0"/></g></g><g id="bubble-1"><circle cx="202.3" cy="489.4" r="26.2" class="st1"/></g><g id="bubble-2"><circle cx="459.9" cy="540.1" r="28.8" class="st1"/></g><g id="bubble-3"><circle cx="531.6" cy="465.4" r="40.8" class="st1"/></g><g id="bubble-4"><circle cx="316.6" cy="497.7" r="18.8" class="st1"/></g><g id="bubble-5"><circle cx="170.2" cy="387.4" r="47.3" class="st1"/></g><g id="bubble-6"><circle cx="376.7" cy="433.5" r="85.9" class="st1"/></g><g id="bubble-10"><circle cx="273.5" cy="387.4" r="47.3" class="st1"/></g><g id="bubble-11"><circle cx="466.7" cy="410.3" r="61.3" class="st1"/></g><g id="bubble-12"><circle cx="553.2" cy="402" r="40.8" class="st1"/></g><g id="hand-top"><g><g><path d="M690.9,140.7c-75.1,27-132.9,33.9-132.9,33.9c-150.6-33.5-290.2,3-338.6,20.7 c-33.3,12.2-40.9,34.6-28.8,43.6c-12.7,3.6-22.9,7.2-32.5,11.3c-25.3,10.7-40.7,42.3-3.1,46.6c-71.4,21.4-61.4,69.3,5.3,55.1 c19.8-4.2,49.6-9.9,49.6-9.9c-68.6,20.5-64.4,71.7,2.6,56.2c63.1-14.6,145.8-26.9,192.4-33.2c-20,12.3-52.8,36.2-76,57.1 c-50.4,45.5-6.6,75.9,38.1,49.9c44.6-26,84.6-46,142.5-57.6c45.9-9.2,73.4-35.8,83.8-67.6l126.7-20" class="st2"/></g><g><path d="M155.1,296.8c-37.6-4.3-22.2-35.9,3.1-46.6c55.2-23.3,178.7-41,178.7-41" class="st0"/><path d="M347.9,314.4c0,0-57.9,3.7-138,27.6c-68.6,20.5-64.4,71.7,2.6,56.2c92-21.3,228.8-37.9,228.8-37.9" class="st0"/><path d="M405,364.9c-20,12.3-52.8,36.2-76,57.1c-50.4,45.5-6.6,75.9,38.1,49.9c44.6-26,84.6-46,142.5-57.6 c51.4-10.3,79.8-42.4,86.8-79.2" class="st0"/><path d="M690.9,140.7c-75.1,27-132.9,33.9-132.9,33.9c-150.6-33.5-290.2,3-338.6,20.7 c-33.3,12.2-40.9,34.6-28.8,43.6" class="st0"/><line x1="593.3" x2="720" y1="346.8" y2="326.8" class="st0"/><path d="M335.4,263.3c0,0-91.1,9.4-174.2,31.8c-76.6,20.6-68.9,71.4-0.8,56.8c19.8-4.2,49.6-9.9,49.6-9.9" class="st0"/></g></g></g></svg>