<svg xmlns="http://www.w3.org/2000/svg" xmlns:xlink="http://www.w3.org/1999/xlink" x="0" y="0" version="1.1" viewBox="0 0 800 800" xml:space="preserve" style="enable-background:new 0 0 800 800"><style type="text/css">.st0{stroke:#3b3858;stroke-width:12;stroke-linecap:round;stroke-linejoin:round;stroke-miterlimit:10}.st0,.st1{fill:none}.st1,.st2{stroke-width:12;stroke-linecap:round;stroke-linejoin:round;stroke-miterlimit:10}.st1,.st2{stroke:#64e5f9}.st2{fill:#64e5f9}.st3{fill:#3b3858}</style><g id="head"><path d="M472.3,290.3c-62.7,36.8-285.8,16.6-259.2-123.4c16.4-86.1,207.2-160.2,373.8,42c0,0,73.7,5,84,68.6 c6.6,40.8-17.1,69.8-17.1,69.8s37.1,38.3-6.6,55" class="st0"/><path d="M593.4,159.1c7.1,23.5-6.4,49.8-6.4,49.8l34.9-12.8" class="st0"/><line x1="428.6" x2="533.7" y1="455.7" y2="404.6" class="st1"/><line x1="466.3" x2="597.3" y1="572.6" y2="553.1" class="st1"/><path d="M393,639.8c0,0,3.9,51.7,1.3,70.2" class="st0"/><path d="M270.7,279.3c0,0-25,101.7-5.7,170.3" class="st0"/><line x1="323.8" x2="316.3" y1="364.9" y2="401.1" class="st0"/><path d="M229.8,245.8c-45.3,14.7-53.9,82.5,6.4,89.2c0,0-16,30,21.9,30" class="st0"/><path d="M563.8,397.9c5.1-11.2,15.4-18.9,27.3-18.9c17,0,30.7,15.5,30.7,34.6c0,14.2-7.6,26.4-18.4,31.7" class="st0"/><path d="M311.1,404.6c-23.8,1-74.2,70.2-74.2,144.9s55,101,109.9,101c72.1,0,119.5-77.9,119.5-77.9l-37.7-116.9 C367.9,446.7,339.4,403.5,311.1,404.6z" class="st2"/><ellipse cx="292.4" cy="574.6" class="st0" rx="31.4" ry="41.2" transform="matrix(0.8929 -0.4502 0.4502 0.8929 -227.3882 193.199)"/><path d="M441.6,301.5c0,0,3.7,89,60,65.5c0,0-5.7,37.7,32.2,37.7" class="st0"/><path d="M536.7,434.3c-1.9-6.4-2.9-13.3-2.9-20.5c0-35.6,25.6-64.5,57.2-64.5c31.6,0,57.2,28.9,57.2,64.5 s-25.6,64.5-57.2,64.5c-7,0-13.8-1.4-20-4.1" class="st0"/><path d="M597.8,478.3c0,0-6.5,125,31.2,223.3" class="st0"/></g><g id="eye-left"><circle cx="279.9" cy="383" r="12.4" class="st3"/></g><g id="eye-right"><circle cx="407.1" cy="391.5" r="14.1" class="st3"/></g><g id="breath-01"><path d="M145.3,598.6c-5.3-3.7-12.3-4.8-18.8-2.3c-10.4,4-15.6,15.6-11.6,26s16.2,15.6,30.3,14 c30.8-3.4,67.4-30,67.4-30" class="st1"/></g><g id="breath-02"><path d="M97.5,654.6c-11,4.2-16.5,16.6-12.2,27.5s17.1,16.2,32.1,14.8c57.6-5.3,110.4-65.9,110.4-65.9" class="st1"/></g><g id="breath-03"><path d="M244,701.6c1.5,4.3,1,9.2-1.9,13.1c-4.6,6.3-13.4,7.7-19.7,3.1c-6.3-4.6-7.6-13.8-3.9-23.1 c8-20.2,32.6-40.1,32.6-40.1" class="st1"/></g></svg>