<svg xmlns="http://www.w3.org/2000/svg" xmlns:xlink="http://www.w3.org/1999/xlink" x="0" y="0" version="1.1" viewBox="0 0 800 800" xml:space="preserve" style="enable-background:new 0 0 800 800"><style type="text/css">.st0{fill:#64e5f9}.st1{fill:none;stroke:#3b3858;stroke-width:12;stroke-linecap:round;stroke-linejoin:round;stroke-miterlimit:10}.st2{fill:#3b3858}.st3{fill:#64e5f9;stroke:#64e5f9;stroke-width:12;stroke-linecap:round;stroke-linejoin:round;stroke-miterlimit:10}.st4{fill:#fff}</style><g id="bottle"><path d="M133.7,398.6v181.2c0,14.5,27,27.2,67.4,34.3c12.2,2.1,23.5-7.3,23.5-19.7V453.7c0-9.9-7.2-18.3-16.9-19.8 C163.6,427.2,133.7,413.9,133.7,398.6z" class="st0"/><line x1="214.1" x2="214.1" y1="276.4" y2="206.1" class="st1"/><path d="M334.6,206.1v70.3c0,9.5-27,17.2-60.3,17.2c-10.3,0-20-0.7-28.5-2" class="st1"/><path d="M334.6,276.4c0,0,80.4,41.2,80.4,132.2v271.2c0,22.2-63,40.2-140.6,40.2s-140.6-18-140.6-40.2V408.6 c0-91,80.4-132.2,80.4-132.2" class="st1"/><ellipse cx="274.3" cy="206.1" class="st1" rx="60.3" ry="17.2"/><g><path d="M274.3,208c-6.6,0-12-5.4-12-12v-32.8c0-6.6,5.4-12,12-12s12,5.4,12,12V196C286.3,202.7,281,208,274.3,208z" class="st2"/></g></g><g id="Layer_2"><path d="M314.5,91.5v60.3c0,6.3-18,11.5-40.2,11.5s-40.2-5.1-40.2-11.5V91.5" class="st3"/><ellipse cx="274.3" cy="91.5" class="st3" rx="40.2" ry="11.5"/><g><path d="M409.3,209.6c-3.6,0-7-1.9-8.8-5.3L381,167.6l-81-30.9c-5.2-2-7.7-7.7-5.8-12.9c2-5.2,7.8-7.7,12.9-5.8 l84.5,32.3c2.3,0.9,4.1,2.5,5.3,4.6l21.3,40c2.6,4.9,0.7,10.9-4.1,13.5C412.5,209.3,410.9,209.6,409.3,209.6z" class="st2"/></g></g><g id="hand"><g><g><path d="M677.8,633.2l-129.6-19.8c-19.9,27.8-55,45.1-102.5,39.8c-59.9-6.7-107.9,0.1-159.4,11.6 c-51.5,11.5-84.8-31.7-21.6-60.4c30.6-13.9,57.9-22.3,81.7-28c0,0-94.1-6.7-184.9-39.4c-60.6-21.8-77.7-73.8,6.1-55 c0,0-28-7.8-47.5-14.7c-62.7-22.4-49.4-79.7,35.3-49.1c5.6,2,7.5,2.7,12.9,4.5c-70.9-25.4-57.7-78,21.7-48.5 c8.8,3.3,17.6,6.4,26.2,9.3c-64.5-26-51.1-73.8,31.4-44.8c50.5,17.8,115.3,30.4,115.3,30.4s50.3-9.2,113.6,0.1 c58.4,8.6,91.4,47.1,104.9,67.2c0,0,70.6,11.6,137.7,8" class="st4"/></g><g><path d="M588.5,448.5c0,0-32.3-67.6-112.1-79.3c-63.3-9.3-113.6-0.1-113.6-0.1s-64.8-12.6-115.3-30.4 c-82.5-29-95.9,18.8-31.4,44.8" class="st1"/><path d="M168.2,422.6c-70.9-25.4-57.7-78,21.7-48.5c74,27.4,144.3,41.6,144.3,41.6s4.1-12.4,10.8-21.4" class="st1"/><path d="M316.5,505.4c0,0-34.9,2-140.8-21.8c-83.9-18.8-74.8,31.5-14.2,53.4c90.7,32.7,184.9,39.4,184.9,39.4" class="st1"/><path d="M320.6,483.2c0,0-5.7,21.3-2.2,37.8" class="st1"/><path d="M461.6,509.6c0,0-54.8-7.5-69.1,57.7c0,0-64.6,8.3-127.8,37s-29.9,71.8,21.6,60.4 c51.5-11.5,99.5-18.2,159.4-11.6c53.3,5.9,90.8-16.5,109.1-50.2" class="st1"/><path d="M581.3,436.3c0,0,70.6,11.6,137.7,8" class="st1"/><line x1="548.2" x2="677.8" y1="613.3" y2="633.2" class="st1"/><path d="M316,456.1c0,0-58.6-1.2-160.7-38c-84.7-30.6-97.9,26.7-35.3,49.1c19.5,7,47.5,14.7,47.5,14.7" class="st1"/></g></g></g><g id="soap"><path d="M409.3,241.3c0,0-22.3,27.3-22.3,45.7c0,12.3,10,22.3,22.3,22.3s22.3-10,22.3-22.3 C431.6,268.6,409.3,241.3,409.3,241.3z" class="st0"/></g></svg>