<svg xmlns="http://www.w3.org/2000/svg" xmlns:xlink="http://www.w3.org/1999/xlink" x="0" y="0" version="1.1" viewBox="0 0 800 800" xml:space="preserve" style="enable-background:new 0 0 800 800"><style type="text/css">.st0,.st1{fill:none;stroke:#3b3858;stroke-width:12;stroke-linecap:round;stroke-linejoin:round;stroke-miterlimit:10}.st1{stroke:#ff6496;stroke-width:24}</style><g id="hand"><path d="M292.5,243.6c-66-3.1-91,27.9-201.1-8.3" class="st0"/><path d="M91.4,505.4c0,0,52.6-14,108.8-16.9" class="st0"/></g><g id="circle"><circle cx="400" cy="400" r="290" class="st1"/></g><g id="hands"><path d="M687.6,224.6c0,0-46.1,32.9-120.1,40.9c-68.2,7.4-121.3-76.3-178.4-76.3c-57.2,0-91.2,60.8-146.3,92.4 c-50,28.6-38.8,61.5,20.1,60.2c58.8-1.3,97.6-59.9,123.1-59.4c40.1,0.8,157.3,97.7,199.9,145c30.7,34-7.2,92.7-48.8,50.5 c-42.7-43.3-82.9-70.3-82.9-70.3" class="st0"/><path d="M415.8,460.4c0,0,49.9,38.6,68.6,62.3c36.2,45.8,85.6-17.4,43.5-54.1" class="st0"/><path d="M311,474.6c56.5-51.6,91.6,7.9,47.4,53.1c-12.1,12.3-35.9,38.5-50.2,52.3c-33.7,32.7-86.5,1.8-55.6-40.4 C265.9,521.3,294.4,489.8,311,474.6z" class="st0"/><path d="M364.7,520.5c12.2-16.2,69.2-17,45.4,29.8c-12.9,25.4-31.7,39.4-45.4,51.6c-21.8,19.4-71.4,16.9-47.1-31.3" class="st0"/><path d="M410.1,550.3c0,0,52.9,43.4,76.6,18.1c18.8-20.1-2.2-45.7-2.2-45.7" class="st0"/><path d="M386,582.8c0,0,6,23.5,34,21.3c28-2.2,30.1-31,30.1-31" class="st0"/><path d="M197.1,493.4c16-26.4,49.5-67.5,78.4-52.9c27.8,14.1,5.1,64.2-19.8,94.9s-43.8,27.8-55.9,19.8 C183.7,544.6,182,518.2,197.1,493.4z" class="st0"/><path d="M595.5,467.2c0,0,52.3-20.8,115.8-25.3" class="st0"/></g><g id="line"><line x1="605.1" x2="194.9" y1="194.9" y2="605.1" class="st1"/></g></svg>