<svg xmlns="http://www.w3.org/2000/svg" xmlns:xlink="http://www.w3.org/1999/xlink" x="0" y="0" version="1.1" viewBox="0 0 800 800" xml:space="preserve" style="enable-background:new 0 0 800 800"><style type="text/css">.st0{fill:none;stroke:#3b3858;stroke-width:12;stroke-linecap:round;stroke-linejoin:round;stroke-miterlimit:10}.st1{fill:#ff6496}</style><g id="particle-01"><circle cx="627.3" cy="125.1" r="30.3" class="st0"/></g><g id="particle-02"><circle cx="649.8" cy="438.7" r="80.2" class="st0"/></g><g id="particle-03"><circle cx="287.8" cy="670.2" r="35" class="st0"/></g><g id="particle-04"><circle cx="150.1" cy="578.8" r="69.8" class="st0"/></g><g id="particle-05"><circle cx="112.8" cy="162.7" r="42.8" class="st0"/></g><g id="virus"><g><path d="M672.4,349.9c-2.6-11.6-9.8-22-19.9-28.3c-7.7-4.9-16.3-6.7-23.4-5.1c-9.1,2.1-14.3,7.9-19,13 c-4.6,5-8.3,9.2-15.4,10.3c-13.2-44.4-41.2-82.9-79.6-109.3c2.6-8.9,7.7-11.8,13.5-15.2c4.4-2.5,8.9-5.1,11.7-10.2 c3.4-6,3.8-13.5,1.1-21.1c-4.1-11.7-14.5-21.6-28.5-27.2c-14.4-5.8-29.8-6.6-40.1-2.2c-5.8,2.5-9.9,6.6-12,11.8 c-3.1,7.9-2,16.1-1,23.9c0.7,4.9,1.3,9.5,0.8,13.7c-19.4-6-39.6-9.1-60.2-9.1c-19.7,0-39.1,2.8-57.8,8.4 c-9.8-6.5-8.8-11.9-7.5-19.3c0.9-5,1.9-10.6-0.9-16.2c-7.1-14.3-29.1-22.3-53.5-11.1c-11.7,5.4-20.6,14.2-24.2,24.2 c-2.6,7-2.4,14.3,0.5,20.5c3.8,8.1,10.4,12.6,16.3,16.6c6.8,4.6,10.7,7.6,11.5,13.2c-25,17.4-45.9,40.4-60.8,66.9 c-0.3-0.1-0.6-0.2-0.9-0.3c-7.9-2.3-17.8-0.9-26.4,3.7c-7.1,3.8-16.6,11.4-21.4,26.3c-3.6,11.4-2.6,23,2.8,31.9 c4.3,7,11,11.7,18.5,13c0.8,0.1,1.6,0.2,2.5,0.3c-0.9,7.6-1.3,15.6-1.3,24.5c0,30,6.4,58.8,19,85.7c-5.6,2.7-11.7,2.6-18.2,2.5 c-6.6-0.1-13.4-0.2-19.4,3.1c-6.9,3.8-12.2,11.6-14.2,20.8c-2.6,11.9,0.3,24.5,8.3,35.3c8.4,11.5,21.1,19.7,33,21.5 c7.2,1.1,13.6-0.3,18.5-3.9c7.8-5.8,11.3-14.6,14.3-22.3c2.3-5.7,4-9.8,6.3-12c38.6,45.8,94.8,72,154.9,72c6.9,0,13.8-0.3,20.6-1 c-0.1,0.7-0.2,1.3-0.3,2c-0.7,5.3-1.4,10.4-0.1,15.5c1.5,5.9,5.8,10.8,12.4,14.2c6,3,13.2,4.6,20.8,4.6c7.7,0,15.9-1.5,23.6-4.6 c11.4-4.6,20.4-12.9,24.7-23c3.2-7.5,3.5-15.4,0.8-22.1c-1.7-4.1-4.2-7.3-7-10c30.3-16.3,56-40,74.7-68.9 c21-32.3,32.1-69.7,32.3-108.3c11.3-5.3,20.4-3.4,29.2-1.6c5,1,9.8,2,14.6,1.6c7.3-0.7,14.4-5,19.4-11.8 C673.3,377.1,675.5,363.7,672.4,349.9z" class="st1"/><path d="M416.2,322.2c-5.7-11.3-5.6-23.5,1.3-31.5c10.3-12,31.8-10.3,48.1,3.7c16.3,14,21.2,35.1,11,47 c-6.6,7.7-18,9.8-29.5,6.5" class="st0"/><path d="M359.4,416.9c18.9,0,34.3,15.3,34.3,34.3s-15.3,34.3-34.3,34.3c-18.9,0-34.3-15.3-34.3-34.3 c0-6.6,1.9-12.8,5.2-18.1" class="st0"/><path d="M488.1,413.6c16,8.1,32.1,3.6,40.5,12.6c9.9,10.6,10.4,25.7-3.2,40.7c-13.6,15-32.5,18.4-44.1,9.6 c-14-10.6-9.1-27.2-9.1-27.2" class="st0"/><path d="M458.8,219.6c16.6-14.4,1.3-35.1,7.6-51.1c4.9-12.4,25.7-13.7,44.3-6.2c22.3,8.9,30.8,28.4,24.4,39.8 c-6.1,10.8-25.4,7.6-27.5,37" class="st0"/><path d="M250.7,373c-20.5-18.4-35.5-3.2-53.1-6.1c-13.1-2.2-22.7-18-16.6-37.1c7.3-22.8,28.5-29.5,40.4-26.1 c11.9,3.4,12.5,23.6,39.2,15.2" class="st0"/><path d="M465.7,550c1,21.5,25.4,22,31.9,37.9c5,12.3-3.5,29.8-22.2,37.2c-22.3,8.9-45.6,2.7-48.9-10 c-3.1-12,8.4-27.4-7.5-49.9" class="st0"/></g></g></svg>